<svg width="300" height="300" viewBox="0 0 300 300" fill="none" xmlns="http://www.w3.org/2000/svg">
  <!-- Background circle -->
  <circle cx="150" cy="150" r="140" fill="#0b3f3f" stroke="#e6c84c" stroke-width="6"/>
  
  <!-- Bitcoin symbol -->
  <g transform="translate(75, 75) scale(1.5)">
    <path d="M63.04 39.741c-4.274-17.143-21.637-27.213-38.782-22.939-17.138 4.274-27.209 21.638-22.936 38.778 4.272 17.145 21.635 27.212 38.775 22.939 17.144-4.274 27.215-21.64 22.943-38.778z" fill="#e6c84c"/>
    <path d="M46.11 27.441c.636-4.258-2.606-6.547-7.039-8.074l1.438-5.768-3.511-.875-1.4 5.616c-.923-.23-1.871-.447-2.813-.662l1.41-5.653-3.509-.875-1.439 5.766c-.764-.174-1.514-.346-2.242-.527l.004-.018-4.842-1.209-.934 3.75s2.605.597 2.55.634c1.422.355 1.679 1.296 1.636 2.042l-1.638 6.571c.098.025.225.061.365.117l-.37-.092-2.297 9.205c-.174.432-.615 1.08-1.609.834.035.051-2.552-.637-2.552-.637l-1.743 4.019 4.569 1.139c.85.213 1.683.436 2.503.646l-1.453 5.834 3.507.875 1.439-5.772c.958.26 1.888.5 2.798.726l-1.434 5.745 3.511.875 1.453-5.823c5.987 1.133 10.489.676 12.384-4.739 1.527-4.36-.076-6.875-3.226-8.515 2.294-.529 4.022-2.038 4.483-5.155zm-8.022 11.249c-1.085 4.36-8.426 2.003-10.806 1.412l1.928-7.729c2.38.594 10.012 1.77 8.878 6.317zm1.086-11.312c-.99 3.966-7.1 1.951-9.082 1.457l1.748-7.01c1.982.494 8.365 1.416 7.334 5.553z" fill="#0b3f3f"/>
  </g>
  
  <!-- Wallet outline -->
  <rect x="60" y="180" width="180" height="60" rx="10" fill="#072727" stroke="#e6c84c" stroke-width="4"/>
  
  <!-- Wallet fold -->
  <path d="M60 210 H240" stroke="#e6c84c" stroke-width="2" stroke-dasharray="5 3"/>
  
  <!-- Wallet clasp -->
  <rect x="200" y="195" width="30" height="30" rx="5" fill="#e6c84c" stroke="#072727" stroke-width="2"/>
</svg>
