<?xml version="1.0" encoding="UTF-8" standalone="no"?>
<svg width="32px" height="32px" viewBox="0 0 32 32" version="1.1" xmlns="http://www.w3.org/2000/svg">
    <g id="Bitcoin-Icon" stroke="none" stroke-width="1" fill="none" fill-rule="evenodd">
        <circle id="Bitcoin-Background" fill="#0E3D44" cx="16" cy="16" r="16"></circle>
        <path d="M21.2,13.7c0.8,-0.4 1.3,-1.3 1.2,-2.4c-0.1,-1.7 -1.7,-2.3 -3.6,-2.4V6h-2v2.8h-1.6V6h-2v2.8h-3.2v2h1.7c0.5,0 1.1,0.1 1.2,0.6v8.2c0,0.4 -0.2,0.8 -1,0.8h-1.9v2.1h3.2V26h2v-3.5h1.6V26h2v-3.5c3.2,-0.2 5.1,-1.1 5.3,-3.9c0.2,-2.1 -0.8,-3 -2.7,-3.4zM15,10.8h1.6c1.3,0 2.5,0.2 2.5,1.7c0,1.4 -1.2,1.7 -2.5,1.7H15V10.8zM17.3,20.5H15v-4h2.3c1.7,0 3,0.3 3,2c0,1.6 -1.3,2 -3,2z" id="Bitcoin-Symbol" fill="#E6B143"></path>
    </g>
</svg>